<svg viewBox="0 0 100 40" fill="none" xmlns="http://www.w3.org/2000/svg">
  <!-- Background -->
  <rect width="100" height="40" fill="#1C1917" rx="4"/>
  
  <!-- Glasses Icon in primary color (gold/lime) -->
  <g fill="#E8DD37">
    <!-- Left Lens Frame -->
    <path d="M 6.5,8 C 18,5 34,7 42,15 C 36,36 20,38 12,35 C 5,30 2,15 6.5,8 Z M 12.5,13.5 C 9,19 11,28 17,30 C 25,32 34,28 35,18 C 36,13 22,9.5 12.5,13.5 Z" />
    
    <!-- Right Lens Frame -->
    <path d="M 58,8 C 70,5 86,7 94,15 C 88,36 72,38 64,35 C 57,30 54,15 58,8 Z M 64,13.5 C 61,19 63,28 69,30 C 77,32 86,28 87,18 C 88,13 74,9.5 64,13.5 Z" />
    
    <!-- Bridge -->
    <rect x="44" y="18" width="12" height="4" rx="2"/>
  </g>
</svg>